<svg height="2501pt" preserveAspectRatio="xMidYMid meet" viewBox="0 0 2500 2501" width="2500pt" xmlns="http://www.w3.org/2000/svg"><g transform="matrix(.1 0 0 -.1 0 2501)"><path d="m12105 25003c-2185-85-4217-682-6036-1773-3397-2039-5643-5599-6014-9535-76-813-71-1689 16-2495 285-2652 1368-5084 3145-7060 171-191 649-672 839-845 2596-2368 6008-3532 9490-3240 2287 193 4474 1007 6320 2353 309 226 701 545 1005 818 191 171 672 649 845 839 1857 2035 2994 4609 3234 7315 39 444 46 606 45 1130 0 637-21 968-95 1559-240 1919-922 3759-1988 5361-691 1038-1541 1974-2511 2764-1989 1621-4411 2589-6960 2781-407 30-975 42-1335 28zm2115-4730c263-58 458-161 629-333 145-146 210-249 413-655 268-535 347-664 498-815 138-138 282-227 468-290 202-68 60-63 2142-70 2039-6 1896-3 2080-56 202-58 422-218 537-389 91-135 160-313 184-475 10-68 13-1057 13-5005l1-4920-21-96c-62-276-223-515-446-662-154-103-304-156-497-177-161-18-15358-11-15468 7-241 39-480 165-640 336-142 152-230 326-273 539l-21 103v4900c1 4408 3 4910 17 4995 39 233 137 425 300 587 142 142 311 236 511 285l88 22 1900 6c1893 6 1900 6 1993 27 261 60 453 163 621 332 147 150 206 246 466 762 107 212 221 426 253 475 220 334 519 525 908 579 81 11 388 13 1674 11 1558-2 1576-2 1670-23z"/><path d="m5560 16705c-272-59-454-248-499-520-9-53-11-1032-9-4010 3-3786 4-3942 22-4000 69-228 221-378 446-442 63-17 198-18 3555-18h3490l78 23c123 35 193 76 278 161 83 82 131 168 166 291 17 62 18 224 18 4025 0 3770-1 3963-18 4025-33 121-83 208-166 291-81 81-144 119-266 160l-70 24-3480 2c-2939 1-3490-1-3545-12zm3822-1524c485-84 928-392 1182-824 172-291 247-598 232-947-18-456-195-847-528-1165-248-238-530-382-883-452-70-14-139-18-310-18-190 0-236 3-333 23-688 139-1215 665-1354 1354-20 99-23 142-23 343 1 252 12 330 75 527 41 127 156 353 237 468 83 116 270 305 379 382 278 198 520 289 884 332 77 9 331-4 442-23zm-1705-3636c31-14 99-56 152-94 390-279 793-411 1254-411 243 0 428 30 657 106 185 61 349 144 549 279 187 125 243 149 342 148 126 0 248-81 484-317 418-419 680-910 791-1483 34-174 30-256-15-348-54-109-149-174-286-195-49-7-821-10-2560-8-2240 3-2495 5-2540 19-88 28-123 47-170 90-107 99-128 218-81 463 88 454 275 852 575 1226 134 167 426 447 530 508 99 58 216 64 318 17z"/><path d="m15250 15620c-92-9-216-50-291-95-288-175-384-563-212-854 77-130 195-224 348-277 79-28 85-28 385-34 168-3 1075-4 2015-2 1883 4 1761 0 1900 67 170 82 292 234 341 426 21 84 15 238-15 329-29 93-86 185-157 255-120 118-246 172-438 186-145 10-3768 9-3876-1z"/><path d="m15142 12830c-152-40-301-147-384-274-81-125-116-317-84-466 24-115 84-227 164-308 112-111 235-170 402-192 60-8 654-10 2030-8l1945 3 80 27c183 62 314 174 394 335 47 94 64 180 59 298-8 165-66 300-181 415-71 73-147 120-252 157l-80 28-2010 2c-1952 2-2012 1-2083-17z"/><path d="m15495 10080-320-5-85-31c-107-38-181-87-258-168-69-75-105-134-139-235-97-289 38-617 308-750 166-81 86-76 1249-76 970 0 1039 1 1100 18 233 65 408 240 465 462 19 76 19 224 0 300-54 213-212 383-419 452-80 26-86 27-451 34-419 8-978 8-1450-1z"/></g></svg>