<svg height="2501pt" preserveAspectRatio="xMidYMid meet" viewBox="0 0 2500 2501" width="2500pt" xmlns="http://www.w3.org/2000/svg"><g transform="matrix(.1 0 0 -.1 0 2501)"><path d="m11340 25000c-547-14-2139-30-3010-30-454 0-2002 5-3441 12-2765 12-2819 12-3089-32-994-162-1634-849-1755-1885-13-115-15-1304-15-10541 0-7039 3-10445 10-10515 46-466 193-875 425-1184 329-437 824-699 1496-792 116-16 551-17 6804-20 6757-3 7934 1 8140 31 435 63 823 228 1122 479 319 268 548 641 657 1069 75 291 68-6 77 3433 7 2733 6 3100-7 3175-32 176-108 316-240 439-100 94-308 225-323 204-7-11-142-176-280-343-52-63-176-198-276-300-215-220-268-295-323-455-58-169-54 27-52-2890 1-1840-2-2700-10-2765-21-190-67-306-156-401-99-103-234-151-478-170-100-8-2244-9-7321-6-6547 3-7188 5-7275 20-287 49-417 165-471 420-18 80-21 158-30 597-12 575-16 20083-5 20240 21 284 67 423 175 530 89 89 206 136 401 160 94 11 10037 15 10287 3l142-6 4-2026c2-1569 6-2043 16-2099 22-132 51-225 97-321 116-238 348-369 706-401 83-7 701-10 1923-10 1931 2 1834 4 1909-45 30-20 63-70 77-117 7-21 10-402 9-1083 0-984 1-1063 20-1255 11-113 20-209 20-215 0-5 139 130 308 301 204 206 349 343 432 409 172 137 264 221 346 315 201 236 319 488 376 807 19 109 22 162 22 363 0 160-6 281-17 380-60 493-157 821-338 1134-118 206-193 293-958 1111-820 876-1096 1173-1343 1443-485 531-828 922-1187 1352-324 389-645 698-926 892-398 276-871 463-1368 543-302 48-671 61-1307 45z"/><path d="m22555 18854c-151-28-452-139-692-254-284-136-425-233-633-434-625-604-2231-2191-4817-4759-1441-1432-2018-2011-2033-2041-28-59-26-111 8-168 17-29 432-452 1103-1125 828-830 1087-1084 1125-1103 36-19 64-25 109-25 110 1 114 5 719 615 815 823 4122 4126 4423 4418l261 252 326-282 326-283-277-276c-153-151-822-813-1488-1471-665-657-1273-1260-1350-1339-200-205-276-336-291-505-18-205 122-432 332-535 82-41 92-44 190-47 114-5 197 14 304 68 134 68 147 80 1187 1135 422 429 1358 1374 2078 2100 1343 1353 1366 1377 1443 1531 51 101 65 164 60 274-3 89-7 104-43 176-29 60-58 98-119 159-184 182-380 212-623 95-101-49-204-126-353-265-63-59-148-137-189-174l-74-66-278 285c-153 157-279 288-279 291s138 156 307 340c442 482 527 583 670 796 156 234 268 493 320 742 21 103 26 154 27 281 1 233-38 393-145 600-81 157-169 271-349 450-297 298-541 455-819 527-124 32-344 40-466 17z"/><path d="m4760 17199c-261-6-328-15-450-57-294-102-460-334-460-642 0-271 133-493 361-604 143-69 226-86 484-97 132-6 1153-8 2545-6 2118 3 2331 5 2390 20 269 68 439 192 534 392 122 253 70 567-124 763-107 109-234 176-411 218-70 17-204 18-2344 19-1248 0-2385-2-2525-6z"/><path d="m4565 13463c-91-8-195-37-282-79-218-105-358-329-371-594-9-197 49-351 184-486 121-123 256-184 479-216 133-19 8470-19 8625 0 432 54 612 169 1167 742 173 179 201 215 286 371l37 66-116 73c-64 39-146 84-183 98l-66 27-4860 1c-2673 0-4878-1-4900-3z"/><path d="m13229 10223c-722-726-1011-1030-1414-1483-978-1100-1632-2036-2134-3055-225-454-361-784-512-1236l-83-247-118 90c-344 260-616 396-865 433-165 25-302 15-500-36-273-70-681-268-1189-577-56-34-104-62-107-62-2 0 45 134 105 298 116 318 298 891 353 1113 46 187 59 303 52 472-6 178-36 298-111 452-176 360-527 575-936 575-139 0-254-21-415-74-433-145-779-409-1105-841-274-364-459-724-768-1495-165-411-185-486-162-610 24-132 104-230 244-299 224-110 414-50 561 177 52 81 48 74 200 442 280 681 413 914 732 1296 114 135 351 388 396 421 56 41 124 58 237 58 123 0 158-15 190-80 40-83 49-275 18-405-6-25-33-94-60-155-66-146-83-198-177-550-147-546-179-709-188-952-11-299 50-486 215-650 89-89 210-153 342-179 153-30 352-10 524 55 111 41 299 144 450 246 83 56 214 144 291 196 551 370 911 340 1256-107 94-122 144-168 218-203 49-23 69-26 156-26 92 0 105 2 166 32 90 44 162 106 234 200 74 96 179 208 220 233 45 28 235 97 694 252 649 218 839 293 1166 462 870 449 1774 1086 2730 1926 471 413 802 727 1487 1408 458 457 550 553 568 595 23 53 22 94-6 152-8 16-511 524-1117 1129-791 788-1122 1112-1174 1147-40 27-74 49-76 49s-266-264-588-587z"/><path d="m4610 9740c-232-21-430-111-554-252-170-192-204-499-84-746 46-93 176-224 275-275 85-44 160-72 258-94 63-15 299-17 2345-20 1251-3 2410-5 2575-6 334-2 431 8 597 63 254 85 409 213 594 490 121 183 203 287 397 504 79 89 173 195 210 237l66 77-27 7c-62 16-6476 30-6652 15z"/></g></svg>