<svg height="2501pt" preserveAspectRatio="xMidYMid meet" viewBox="0 0 2500 2501" width="2500pt" xmlns="http://www.w3.org/2000/svg"><g transform="matrix(.1 0 0 -.1 0 2501)"><path d="m22285 24973c-235-29-446-79-620-147-427-167-662-357-1623-1309l-382-379 699-707c385-388 1165-1171 1733-1739l1034-1033 353 343c194 189 370 358 392 376 65 56 475 488 561 590 229 276 413 639 497 982 52 216 66 331 66 575 0 245-14 363-66 575-163 658-623 1261-1207 1578-278 152-579 248-892 287-113 14-458 19-545 8z"/><path d="m12704 16165c-5534-5539-5766-5773-5799-5840-27-57-140-495-585-2280-304-1215-554-2233-557-2262l-6-52 84 19c46 10 1061 262 2254 560 1721 430 2186 550 2245 577 75 35 84 44 5815 5773 3157 3156 5755 5745 5773 5754 17 9 32 20 32 24s-786 792-1746 1752l-1746 1745z"/><path d="m1305 21465c-429-67-803-306-1046-669-109-162-184-343-231-556l-23-105v-9365c0-9105 1-9368 19-9465 116-622 577-1098 1197-1237l104-23h9400c9134 0 9402 1 9485 19 679 148 1158 680 1230 1363 7 67 10 2414 8 7363l-3 7266-1415-1267-1415-1266-5-4644c-6-4344-7-4649-23-4729-10-47-33-134-52-195-177-566-687-994-1267-1065-68-8-1840-10-6603-8l-6510 3-92 22c-578 138-1009 543-1164 1093-64 227-59-296-59 6763 0 6991-3 6530 54 6740 75 272 197 479 406 687 236 237 501 375 827 430 113 20 194 20 4711 21h4597l1425 1341c784 737 1463 1375 1510 1419l85 78h-7535c-5997-1-7551-4-7615-14z"/></g></svg>