<svg fill="#ce2127" height="2501pt" preserveAspectRatio="xMidYMid meet" viewBox="0 0 2500 2501" width="2500pt" xmlns="http://www.w3.org/2000/svg"><g transform="matrix(.1 0 0 -.1 0 2501)"><path d="m12105 25000c-1062-65-2050-341-2957-826-1952-1043-3317-2935-3677-5099-247-1486-29-2993 627-4335 1073-2192 3208-3683 5632-3934 520-54 1146-46 1665 19 1924 244 3663 1252 4821 2795 1750 2330 1886 5534 341 8020-727 1170-1787 2114-3030 2696-780 366-1591 580-2482 654-173 14-765 21-940 10z"/><path d="m16637 10933c-2-5-48-186-101-403-250-1017-312-1260-405-1600-732-2670-1725-5051-3044-7300-197-336-304-497-386-581-74-74-152-119-211-119-83 0-186 80-276 215-53 79-73 115-264 480-90 171-240 456-335 635-903 1703-1282 2496-1641 3426-352 915-613 1703-1194 3604-122 399-280 912-352 1140s-136 432-142 453c-18 63 8 72-866-307-377-164-887-386-1135-493-970-421-1956-862-2320-1037-794-383-1456-958-2007-1741-775-1103-1302-2435-1518-3843-36-236-149-1153-156-1267-21-355 93-486 576-663 277-102 1000-335 1350-437 1936-561 4048-859 7080-1000 3695-171 6815-83 9695 276 2168 269 3734 621 5110 1146 247 95 349 150 445 240 92 86 140 171 165 288 19 92 18 158-4 285-11 58-60 337-110 620-51 283-105 589-122 680-224 1237-460 1997-863 2785-631 1233-1574 2164-2824 2789-230 115-301 146-872 384-427 178-908 384-2350 1007-480 207-625 265-749 301-167 48-168 48-174 37z"/><path d="m11861 8409c-212-15-338-62-391-145-73-116-66-275 40-824 22-113 57-317 79-455 45-282 61-341 103-384 63-64 75-65 678-69 300-3 595-5 655-5 101-1 115 1 172 27 64 29 128 88 156 142 33 64 59 176 73 314 29 283 72 515 164 880 73 287 72 385-3 458-73 70-29 67-862 68-412 1-801-2-864-7z"/><path d="m12185 6089c-169-16-365-66-425-109-39-28-102-160-129-270-12-47-39-182-61-300s-63-296-90-395c-59-218-55-198-80-422-23-207-25-290-9-365 21-97 276-614 799-1618 127-245 237-450 243-457 7-6 39-13 72-15l60-3 268 515c386 743 792 1539 808 1585 9 25 13 79 13 145-1 88-10 146-57 360-132 599-244 1047-283 1123-54 109-153 207-208 207-12 0-138 7-281 15-282 16-499 17-640 4z"/></g></svg>