<svg fill="#ce2127" height="2501pt" preserveAspectRatio="xMidYMid meet" viewBox="0 0 2500 2501" width="2500pt" xmlns="http://www.w3.org/2000/svg"><g transform="matrix(.1 0 0 -.1 0 2501)"><path d="m11985 24999c-206-9-586-37-593-43-4-5 28-379 34-385 2-2 65 1 141 8 324 26 533 34 940 35l432 1 5 50c3 28 7 113 10 191l4 141-81 7c-109 8-654 5-892-5z"/><path d="m14516 24821c-3-14-17-100-32-190-20-126-23-165-14-171 7-4 36-11 64-14 208-28 908-185 1261-285 77-22 141-38 143-36 6 5 113 368 110 370-7 6-279 81-473 131-325 83-701 162-1032 217-17 3-23-2-27-22z"/><path d="m9795 24713c-204-47-591-146-770-198-196-56-683-211-693-221-6-5 124-365 131-365 4 0 105 32 225 71 358 118 847 253 1137 315 44 10 83 20 87 24s-10 89-32 189-40 184-40 187c0 6-15 5-45-2z"/><path d="m17445 23774c-42-96-75-177-73-178 1-2 71-34 153-71 310-141 942-472 1143-599 23-14 44-26 46-26 4 0 182 292 202 331 4 7-334 201-576 330-242 128-784 389-810 389-4 0-42-79-85-176z"/><path d="m6715 23593c-498-263-1195-687-1178-717 7-11 204-308 208-314 2-2 74 44 161 101 296 194 752 460 1014 592 52 26 104 54 117 62l22 15-87 174c-48 96-89 174-92 173-3 0-77-39-165-86z"/><path d="m20093 22195c-62-80-114-148-115-153-2-5 60-60 137-122 277-224 503-423 810-716l181-172 139 134 140 133-175 173c-190 187-385 366-605 554-190 162-380 314-391 314-5-1-60-66-121-145z"/><path d="m4124 21788c-281-253-827-803-932-938l-19-25 145-129 145-130 91 100c262 285 582 603 854 848 73 65 132 121 132 123 0 4-188 221-235 271l-22 24z"/><path d="m22270 20010c-80-62-149-115-154-120s45-81 116-177c226-305 445-630 627-930 51-84 96-153 101-153 10 0 301 169 319 186 12 10-3 41-95 191-194 319-616 935-741 1081l-28 33z"/><path d="m12975 20068c-220-5-1403-7-2630-5-1254 3-2275 1-2333-4-539-47-914-343-1058-838-58-199-54 206-54-6126 0-6343-4-5914 55-6135 125-462 474-760 977-834 90-13 600-16 4183-18 3318-2 4099 0 4180 11 210 27 388 87 536 180 262 165 430 408 511 741 21 84 21 111 28 1840 5 1379 4 1768-6 1816-15 74-49 144-98 201-38 44-178 143-201 143-8 0-60-57-118-127-57-71-143-166-191-213-103-100-166-191-198-280l-23-65-5-1575c-5-1534-6-1576-25-1630-26-75-102-150-175-176-54-19-151-19-4195-19-3897 0-4143 1-4196 17-78 25-142 83-170 156-17 44-23 92-30 217-12 223-12 11493 0 11573 20 135 62 208 146 258 96 56-37 53 3030 54 1557 0 2860-3 2896-6l67-7 4-1146c5-1122 6-1148 26-1223 39-144 101-227 206-278 118-56 69-54 1243-59 1087-6 1092-6 1120-27 58-43 57-28 54-640-2-372 2-610 10-705 6-79 13-146 15-148 2-3 82 74 177 171 94 96 216 210 270 253 270 214 381 447 381 800 0 308-61 587-173 800-81 156-83 158-730 850-668 714-907 979-1180 1305-192 230-424 462-551 552-295 209-594 314-985 348-133 11-211 11-790-2z"/><path d="m2167 19543c-99-136-364-560-515-824-123-217-252-454-252-466 0-10 339-188 344-182 2 2 36 65 76 139 176 327 351 620 556 933 79 120 144 221 144 225 0 6-263 190-305 215-9 5-25-8-48-40z"/><path d="m23820 17344c-96-41-176-76-177-78-1-1 35-94 81-206 135-333 303-815 392-1122 18-65 33-98 42-98 13 0 94 22 295 81 66 20 69 21 62 47-21 91-160 524-232 727-85 237-267 704-281 717-4 4-86-27-182-68z"/><path d="m750 16778c-105-288-226-667-310-973-52-189-120-463-120-485 0-13 38-25 186-59 102-23 187-41 189-39 1 2 23 86 49 188 86 351 201 735 330 1104 30 88 54 161 53 162s-76 29-167 62-172 63-181 67c-12 5-20-2-29-27z"/><path d="m19501 16639c-113-19-384-127-519-207-37-22-93-60-126-86-88-68-967-934-3048-3003-946-941-920-912-888-974 17-32 1184-1206 1234-1242 41-28 85-34 130-18 13 6 684 669 1491 1475 806 807 1469 1466 1474 1466 14 0 356-301 356-313 0-7-387-395-860-863s-884-877-914-910c-114-124-145-259-88-376 31-62 93-125 159-160 69-36 172-33 263 10 78 36-10-52 1805 1782 738 746 799 810 831 875 47 96 53 189 16 262-36 70-109 138-174 163-139 52-250 5-469-197l-117-108-153 160c-85 88-154 163-154 166s90 105 201 225c215 234 329 378 395 495 119 214 166 439 130 619-36 175-107 294-275 461-246 244-464 337-700 298z"/><path d="m9465 15710c-164-12-254-48-335-136-62-67-83-122-88-230-8-168 56-286 190-355 121-61 50-59 1593-59 1521 0 1463-2 1567 51 62 32 145 115 175 177 34 71 43 192 20 273-35 118-126 209-259 257l-73 27-1340 1c-737 1-1389-2-1450-6z"/><path d="m24666 14359c-98-26-181-50-183-53-3-2 7-91 21-198 49-372 82-744 102-1182l6-139 61 7c33 3 121 6 195 6h135l-7 183c-14 371-54 821-107 1202-16 116-29 213-29 218 0 10 6 11-194-44z"/><path d="m56 13715c-29-205-56-786-56-1192v-333h118c64 0 153 3 197 6l80 7 1 391c1 389 12 641 40 955 8 90 13 165 12 167-2 1-89 11-195 21l-191 18z"/><path d="m9420 13623c-215-24-365-209-347-426 15-173 130-291 324-332 58-12 415-15 2443-15 1624 0 2399 3 2450 10 211 30 316 96 586 371 116 118 159 169 184 218l32 64-23 18c-13 10-55 36-94 56l-70 38-2725 1c-1499 0-2741-1-2760-3z"/><path d="m14239 11773c-630-636-954-999-1284-1438-439-584-754-1167-945-1750-24-71-44-131-45-133s-38 24-81 57c-180 135-337 211-480 232-196 30-442-55-837-286-82-48-150-86-152-84-1 2 26 83 61 179 86 236 190 584 210 700 50 292-70 556-308 676-192 97-400 83-653-43-157-78-272-172-401-326-183-218-304-443-506-947-61-150-71-186-75-250s-1-81 19-120c43-84 169-150 258-135 58 10 122 56 163 117 20 30 68 133 107 229 179 439 295 627 554 900 96 102 133 122 223 122 101 1 128-43 121-194-3-71-10-99-45-179-42-98-151-489-178-640-47-262-22-418 88-537 51-55 133-98 218-113 110-20 226 3 363 72 82 41 112 60 289 181 184 126 300 172 421 165 126-7 214-65 355-237 25-30 62-61 85-72 95-43 211-10 289 84 85 102 132 149 167 167 19 10 170 64 335 120 384 131 515 183 700 279 372 193 743 440 1150 766 358 286 661 563 1162 1060 349 346 353 350 353 391 0 26-8 51-22 70-33 43-1237 1236-1275 1262-17 12-33 22-35 22-3 0-169-165-369-367z"/><path d="m9460 11544c-84-13-142-30-193-55-272-138-269-525 5-665 106-54 57-52 1638-55 1626-2 1504-6 1655 65 94 44 169 115 255 242 79 116 120 167 269 335 89 100 99 114 84 124-17 9-3651 19-3713 9z"/><path d="m24550 11263c0-25-44-373-66-522-41-283-148-851-179-952-4-13 27-23 185-59 104-24 191-42 194-39 14 15 134 631 180 929 33 213 78 590 73 605-3 7-70 18-178 28-196 19-209 20-209 10z"/><path d="m315 10651-170-27 3-29c13-125 109-626 178-925 40-174 142-571 148-577 4-4 360 99 368 106 3 3-29 146-73 318-78 307-168 733-209 988-29 181-27 175-53 174-12-1-98-13-192-28z"/><path d="m23849 8273c-24-77-199-504-279-683-61-137-285-604-317-660-1-3 75-45 169-94 164-85 172-88 186-70 19 25 200 396 291 596 161 357 339 804 325 818-12 10-333 130-349 130-8 0-19-17-26-37z"/><path d="m1180 7689c-91-39-169-74-174-79-18-18 326-745 524-1105 77-140 159-285 166-294 2-2 80 41 173 95 160 93 169 100 157 119-7 11-61 108-121 215-169 306-394 762-525 1068-12 28-25 52-29 52-3-1-80-33-171-71z"/><path d="m22394 5523c-215-308-611-808-848-1071l-21-24 31-26c17-15 84-73 147-130l116-103 35 38c168 186 450 533 642 788 140 187 297 406 292 409-35 26-306 210-314 213-7 2-42-40-80-94z"/><path d="m2724 5022-152-117 66-85c211-273 515-625 797-924l168-178 141 141 141 141-106 107c-232 236-495 536-742 846-83 103-153 187-156 187-3-1-74-54-157-118z"/><path d="m20355 3288c-116-102-395-326-580-465-147-110-486-351-523-372-14-8 1-35 91-170 59-89 112-161 118-161 12 0 202 131 404 278 337 246 839 656 827 676-14 24-245 286-251 285-3 0-42-32-86-71z"/><path d="m4896 2833c-64-81-116-151-116-155 0-9 359-279 547-411 316-223 730-484 743-470 5 4 51 80 103 167l96 159-147 91c-330 207-573 372-881 604-113 85-211 156-217 159-7 2-64-62-128-144z"/><path d="m17755 1594c-297-146-727-328-1077-455-81-30-148-58-148-62 0-7 119-356 124-364 3-4 321 115 498 186 353 141 952 415 946 431-22 55-176 340-183 339-5 0-77-34-160-75z"/><path d="m7540 1249c-41-94-76-175-78-179-5-14 457-202 820-334 210-76 584-199 632-208 16-3 26 22 72 176 30 99 54 183 54 187s-73 30-162 59c-390 124-830 287-1157 429-52 23-97 41-100 41s-40-77-81-171z"/><path d="m14910 639c-321-68-974-165-1237-185-50-4-97-10-103-14-9-6-8-52 5-196 10-104 18-190 20-192 3-3 365 36 539 59 222 29 552 84 794 131 171 33 212 44 212 57-1 39-77 365-86 367-5 1-70-11-144-27z"/><path d="m10497 378c-16-95-30-181-33-190-3-10 2-19 13-22 29-9 425-64 613-85 363-41 916-79 930-64 4 4 10 92 13 195l6 187-42 5c-23 2-136 10-252 16-317 17-730 60-1057 110-70 11-135 20-145 20-16 0-22-21-46-172z"/></g></svg>