<svg fill="#ce2127" height="2501pt" preserveAspectRatio="xMidYMid meet" viewBox="0 0 2500 2501" width="2500pt" xmlns="http://www.w3.org/2000/svg"><path d="m4960 24954c-357-95-587-183-814-310-789-440-1319-1211-1451-2109-25-170-34-435-34-970-1-507 7-679 34-778 51-193 177-320 370-372 34-10 131-20 225-25 91-5 1028-9 2083-9l1918-1-1-9877c0-9684 0-9880 19-9968 44-208 126-345 278-466l74-59h195 195l112 84c94 71 420 393 2052 2032 2657 2668 3119 3135 3650 3689 789 823 950 990 960 995 6 3 46-56 90-130l80-135 1912-1920c2725-2737 4185-4191 4435-4418l217-197h193 193l61 40c34 22 93 73 132 114 112 118 171 260 192 464 6 53 6 4070 1 10362-8 9405-10 10286-25 10400-109 836-387 1521-854 2105-591 739-1430 1236-2443 1444-107 22-211 47-231 55-34 15-668 16-6825 15h-6788zm12640-1104c1050-8 1035-7 1305-70 958-222 1711-857 2059-1735 90-227 148-452 193-745 17-109 18-605 20-9677l3-9562-29-16c-17-8-36-15-43-15-7 1-44 41-82 89-43 57-1110 1130-2940 2958-2292 2291-2887 2880-2950 2923-254 172-448 159-707-48-75-59-966-943-4710-4668-587-584-1111-1100-1165-1147l-99-86-8 2752c-4 1514-5 5988-1 9942 4 5314 3 7236-6 7365-42 647-177 1131-438 1564-63 104-71 124-66 153l6 33 4347-1c2390-1 4780-5 5311-9zm-11869-20c760-77 1276-521 1470-1264 63-245 94-562 82-848l-6-158h-1723-1722l-7 118c-9 142 0 382 21 540 101 777 512 1342 1123 1542 88 28 264 66 346 73 91 8 320 6 416-3z" transform="matrix(.1 0 0 -.1 0 2501)"/></svg>